<svg t="1680352311711" class="icon" viewBox="0 0 1024 1024" version="1.1" xmlns="http://www.w3.org/2000/svg" p-id="8331" width="200" height="200"><path d="M223.82 588.34a24.92 24.92 0 0 1-15-5L113.69 512a25 25 0 0 1 1.9-41.29l563.09-346.36 0.11-0.06A81.63 81.63 0 0 1 787.19 146c0.22 0.3 0.43 0.6 0.63 0.91l90.42 136.4a25 25 0 0 1-7.74 35.11L536.24 523.93a24.79 24.79 0 0 1-32-5 142.72 142.72 0 0 0-40.77-30.21c-30.16-14.63-59.92-13.56-88.43 3.17-85.45 50.13-134.85 90.36-135.34 90.76a25 25 0 0 1-15.88 5.69zM173.08 494l50.49 37.88c21.5-16.2 64.61-47 126.15-83.11 43.83-25.71 91.34-27.14 137.39-4.13a193.43 193.43 0 0 1 39.45 26.52l295.72-181.81L746.5 175a31.84 31.84 0 0 0-41.69-8z" fill="#8a8a8a" p-id="8332"></path><path d="M435 697.11a25 25 0 0 1-20.87-11.24l-76.67-116.24a25 25 0 1 1 41.75-27.53l62.88 95.38 388.19-256-24.59-38.78a25 25 0 1 1 42.22-26.7l37.75 59.53a25 25 0 0 1-7.35 34.26L448.74 693a24.92 24.92 0 0 1-13.74 4.11z" fill="#8a8a8a" p-id="8333"></path><path d="M335 702.34a25 25 0 0 1-21.64-12.49l-42.61-73.74a25 25 0 0 1 43.3-25l29.69 51.38 37.41-23.24a25 25 0 0 1 26.39 42.47l-59.34 36.87a25 25 0 0 1-13.2 3.75zM678.45 680.64A88.65 88.65 0 1 1 767.1 592a88.75 88.75 0 0 1-88.65 88.64z m0-127.29A38.65 38.65 0 1 0 717.1 592a38.69 38.69 0 0 0-38.65-38.65z" fill="#8a8a8a" p-id="8334"></path><path d="M681.25 591.65m-17 0a17 17 0 1 0 34 0 17 17 0 1 0-34 0Z" fill="#8a8a8a" p-id="8335"></path><path d="M929 747.4H722.45a90.47 90.47 0 0 1-90.37-90.4c0-2.15 0.09-4.41 0.29-6.92a25 25 0 0 1 33.24-21.67 38.64 38.64 0 0 0 51.49-36.18v-0.61a25 25 0 0 1 25-25H929a25 25 0 0 1 25 25V722.4a25 25 0 0 1-25 25zM689.25 680a40.37 40.37 0 0 0 33.2 17.42H904v-80.77H763.61A88.88 88.88 0 0 1 689.25 680z m27.86-87.28z" fill="#8a8a8a" p-id="8336"></path><path d="M929 834.07a25 25 0 0 1-25-25V511.8a25 25 0 1 1 50 0v297.27a25 25 0 0 1-25 25z" fill="#8a8a8a" p-id="8337"></path></svg>